<svg width="20" height="20" viewBox="0 0 20 20" fill="none" xmlns="http://www.w3.org/2000/svg">
<path d="M9.99999 1.6665C5.48249 1.6665 1.66666 5.48317 1.66666 9.99984C1.66666 14.5165 5.48249 18.3332 9.99999 18.3332C14.5175 18.3332 18.3333 14.5165 18.3333 9.99984C18.3333 5.48317 14.5175 1.6665 9.99999 1.6665ZM9.99999 12.4998C10.8267 12.4998 11.5417 12.279 11.9108 11.9098L13.0892 13.089C12.1508 14.0265 10.7508 14.1665 9.99999 14.1665C7.70249 14.1665 5.83332 12.2973 5.83332 9.99984C5.83332 7.70234 7.70249 5.83317 9.99999 5.83317C10.7508 5.83317 12.1517 5.97317 13.0892 6.91067L11.9108 8.089C11.5425 7.71984 10.8275 7.49984 9.99999 7.49984C8.64499 7.49984 7.49999 8.64484 7.49999 9.99984C7.49999 11.3548 8.64499 12.4998 9.99999 12.4998Z" fill="#FDFDFD"/>
</svg>
