<?xml version="1.0" encoding="utf-8"?><svg viewBox="0 0 40 40" xmlns="http://www.w3.org/2000/svg" xmlns:xlink="http://www.w3.org/1999/xlink"><style>:root>svg{display:none}:root>svg:target{display:block}</style><svg viewBox="0 0 40 40" id="inst" xmlns="http://www.w3.org/2000/svg"><path d="M25 20a5 5 0 11-5-5 5.016 5.016 0 015 5zm10.625-6.875v13.75a8.75 8.75 0 01-8.75 8.75h-13.75a8.75 8.75 0 01-8.75-8.75v-13.75a8.75 8.75 0 018.75-8.75h13.75a8.75 8.75 0 018.75 8.75zM27.5 20a7.5 7.5 0 10-15 0 7.5 7.5 0 0015 0zm2.5-8.125a1.875 1.875 0 10-3.75 0 1.875 1.875 0 003.75 0z"/></svg><svg viewBox="0 0 40 40" id="linkedin" xmlns="http://www.w3.org/2000/svg"><path d="M11.567 8.333A3.333 3.333 0 114.9 8.33a3.333 3.333 0 016.667.003zm.1 5.8H5V35h6.667V14.133zm10.533 0h-6.633V35h6.566V24.05c0-6.1 7.95-6.667 7.95 0V35h6.584V21.783c0-10.283-11.767-9.9-14.534-4.85l.067-2.8z"/></svg><svg viewBox="0 0 40 40" id="telegram" xmlns="http://www.w3.org/2000/svg"><path d="M34.442 6.195L4.892 17.59c-2.017.81-2.005 1.935-.37 2.437l7.586 2.366 17.554-11.075c.83-.505 1.588-.233.965.32L16.405 24.473h-.003l.003.002-.523 7.82c.766 0 1.105-.352 1.535-.767l3.685-3.583 7.665 5.662c1.413.778 2.428.378 2.78-1.309l5.031-23.713c.515-2.065-.788-3-2.136-2.39z"/></svg></svg>